<?xml version="1.0" encoding="UTF-8"?>
<svg version="1.1" xmlns="http://www.w3.org/2000/svg" width="1024" height="1024">
<path d="M0 0 C6.7025708 3.41426257 11.93744734 8.52438085 17.125 13.875 C18.12080078 14.87853516 18.12080078 14.87853516 19.13671875 15.90234375 C23.01730811 19.84368597 26.69552338 23.91488546 30.31201172 28.09814453 C32.91413245 31.02995253 35.6973739 33.76159811 38.5 36.5 C41.93037996 39.8877966 45.32284475 43.25222089 48.4375 46.9375 C51.74572678 50.84270003 55.3651399 54.40280684 59 58 C66.35706508 65.28098375 66.35706508 65.28098375 69.4375 68.9375 C72.89038596 73.02621151 76.70077198 76.73734698 80.5 80.5 C84.8653112 84.82328655 89.10613961 89.14676831 93.06640625 93.84765625 C96.46696941 97.63292958 100.12868378 101.16805265 103.76391602 104.72680664 C106.7723387 107.69123045 109.65101612 110.70388102 112.40625 113.90625 C116.22285613 118.32772004 120.33471922 122.40923229 124.5 126.5 C129.31974144 131.23352066 133.95872589 136.02095626 138.36523438 141.14257812 C140.78528007 143.89223578 143.37841427 146.44436611 146 149 C149.24498614 152.20109454 152.42960507 155.39136031 155.375 158.875 C159.27327753 163.46459768 163.59643351 167.62149677 167.87304688 171.85351562 C171.55366051 175.51045972 175.07080369 179.23194448 178.4140625 183.203125 C180.25850282 185.29288497 182.23986948 187.19469416 184.25 189.125 C188.35438603 193.20552332 190.72142563 196.49283068 191.375 202.375 C190.5734548 210.12327025 187.40688828 215.3468903 182.5 221.125 C181.41729306 222.4382453 180.33527703 223.75206049 179.25390625 225.06640625 C178.70879395 225.7227002 178.16368164 226.37899414 177.60205078 227.05517578 C175.16201458 230.01728008 172.79874043 233.03748105 170.4375 236.0625 C169.53010596 237.22017597 168.62255391 238.37772812 167.71484375 239.53515625 C167.26737793 240.10637207 166.81991211 240.67758789 166.35888672 241.26611328 C163.61651471 244.76527354 160.8682673 248.25982355 158.12036133 251.75463867 C155.84965605 254.64320105 153.58178015 257.53388561 151.3203125 260.4296875 C145.90179591 267.36034825 140.40132173 274.21691985 134.84082031 281.03417969 C129.93380415 287.05947134 125.12543804 293.15804027 120.34277344 299.28222656 C118.06766082 302.19271608 115.78336957 305.09598707 113.5 308 C110.75945374 311.48651101 108.01990368 314.97378158 105.28515625 318.46484375 C100.05383103 325.13929317 94.78524021 331.78181227 89.47851562 338.39648438 C86.14533624 342.55543207 82.84514703 346.73859896 79.5625 350.9375 C75.58069993 356.02908865 71.52666058 361.05681372 67.4375 366.0625 C62.67365254 371.8978469 58.0272477 377.80517305 53.45703125 383.79296875 C49.49080767 388.98595822 45.43119905 394.10620961 41.38671875 399.23828125 C40.01582318 400.97989788 38.64800009 402.72387885 37.28125 404.46875 C32.53360339 410.52750506 27.75706007 416.56075464 22.9375 422.5625 C18.80113777 427.71606562 14.73047087 432.91341194 10.71411133 438.16088867 C4.91879708 445.72907739 -0.95898103 453.23496368 -6.94140625 460.65625 C-15.25028362 470.96387776 -23.30596049 481.44361337 -31.0234375 492.203125 C-31.51320068 492.88246094 -32.00296387 493.56179688 -32.50756836 494.26171875 C-33.43137893 495.54625235 -34.34930094 496.83505078 -35.26000977 498.12890625 C-37.23536066 500.87483807 -39.05950259 503.04634581 -41.73828125 505.1328125 C-44.36583142 507.30201626 -44.75389432 508.31403385 -45.25 511.625 C-45.37890625 512.40101563 -45.5078125 513.17703125 -45.640625 513.9765625 C-45.75921875 514.97429688 -45.8778125 515.97203125 -46 517 C-46.08467529 517.70157227 -46.16935059 518.40314453 -46.2565918 519.12597656 C-49.05362449 544.21604081 -48.11049146 569.10012488 -32.5 589.9375 C-31.35547053 591.31042781 -30.18965433 592.66598312 -29 594 C-28.45730469 594.61230469 -27.91460937 595.22460938 -27.35546875 595.85546875 C-13.76920943 610.26899445 5.76447983 617.70879037 24.0625 624.0625 C36.18792174 628.29037094 47.64219375 632.99342082 59 639 C60.0533252 639.54253418 61.10665039 640.08506836 62.19189453 640.64404297 C84.99819869 652.44451002 101.35638685 670.43385934 109.5 694.75 C114.18430789 713.11081397 110.87632051 732.11738158 102.02734375 748.63671875 C95.02082372 760.26025198 85.87355144 769.7733667 76 779 C75.07574219 779.86625 74.15148437 780.7325 73.19921875 781.625 C68.69910972 785.54422404 65.07264588 788.08453677 58.9765625 788.24609375 C56.03863625 787.88030451 54.24184713 786.90217332 52 785 C49.96844943 781.95267415 49.68439935 781.10580195 49.625 777.625 C49.59664062 776.87476563 49.56828125 776.12453125 49.5390625 775.3515625 C50.36790578 771.12305694 53.08433688 768.70344298 56.41015625 766.1484375 C57.72306641 765.27058594 57.72306641 765.27058594 59.0625 764.375 C73.96962165 753.76686136 85.4900802 739.24368616 89 721 C90.10942153 710.82807489 89.23955935 701.38284921 85 692 C84.59910156 691.08992187 84.19820312 690.17984375 83.78515625 689.2421875 C71.78708622 664.82872327 46.22954807 655.28109755 22.18792725 646.58743286 C1.70463849 639.17112561 -17.86660262 630.72956243 -35 617 C-35.88429688 616.29746094 -36.76859375 615.59492187 -37.6796875 614.87109375 C-56.30292005 599.11966809 -66.54080689 577.13558598 -69 553 C-69.16200592 548.83243476 -69.18989576 544.67042614 -69.1875 540.5 C-69.18814453 539.34322754 -69.18878906 538.18645508 -69.18945312 536.99462891 C-69.14368813 529.56717896 -68.71445697 522.47320458 -67.4375 515.1484375 C-66.05669755 505.2115913 -68.4450648 500.3036055 -73.375 491.625 C-74.05051877 490.40650682 -74.72405581 489.18691318 -75.39575195 487.96630859 C-76.46436972 486.02497463 -77.53424085 484.08444488 -78.61012268 482.14712524 C-82.52476624 475.09346793 -86.27930202 467.95737573 -90.03375244 460.81756592 C-95.73217825 449.98835625 -101.49484309 439.19883086 -107.38793945 428.47412109 C-111.96918683 420.11121681 -116.42226457 411.68175837 -120.875 403.25 C-127.94592042 389.86119445 -135.08766999 376.51338827 -142.28027344 363.18945312 C-150.7670785 347.44958639 -159.18135828 331.67129897 -167.5625 315.875 C-174.42361792 302.9439116 -181.33966278 290.04338286 -188.29394531 277.16210938 C-190.63104231 272.83038638 -192.96257474 268.49567718 -195.29443359 264.16113281 C-201.96979791 251.75428336 -208.67126671 239.36175142 -215.38671875 226.9765625 C-217.01941351 223.96418136 -218.65056726 220.95097072 -220.28125 217.9375 C-220.82418701 216.93436768 -221.36712402 215.93123535 -221.92651367 214.89770508 C-223.00760033 212.90025187 -224.08849575 210.90269514 -225.16918945 208.9050293 C-227.91599786 203.83170978 -230.67384169 198.76478561 -233.44921875 193.70703125 C-234.00343506 192.69592285 -234.55765137 191.68481445 -235.12866211 190.64306641 C-236.185917 188.71577718 -237.24522752 186.78961376 -238.30688477 184.86474609 C-238.77795654 184.00574707 -239.24902832 183.14674805 -239.734375 182.26171875 C-240.14913086 181.50850342 -240.56388672 180.75528809 -240.99121094 179.97924805 C-242.56339073 176.8946252 -243.21934618 174.17438411 -243.375 170.75 C-243.42398437 170.02296875 -243.47296875 169.2959375 -243.5234375 168.546875 C-242.04033487 161.33058458 -236.11628012 157.22123281 -230.3125 153.375 C-228.78568169 152.33056152 -227.25966587 151.28494913 -225.734375 150.23828125 C-224.95126953 149.70541504 -224.16816406 149.17254883 -223.36132812 148.62353516 C-219.54788408 146.00159524 -215.80631113 143.28251347 -212.0625 140.5625 C-210.55347855 139.46992345 -209.04436354 138.37747609 -207.53515625 137.28515625 C-206.41197998 136.47135498 -206.41197998 136.47135498 -205.26611328 135.64111328 C-201.513552 132.92351827 -197.75656581 130.21205527 -194 127.5 C-192.49997854 126.41669638 -190.99997854 125.33336304 -189.5 124.25 C-186.5 122.08333333 -183.5 119.91666667 -180.5 117.75 C-179.75741943 117.21366943 -179.01483887 116.67733887 -178.24975586 116.12475586 C-176.7506555 115.04211746 -175.25146938 113.9595978 -173.75219727 112.87719727 C-169.98771832 110.15920177 -166.22478096 107.43911932 -162.46484375 104.71484375 C-154.47643988 98.9301375 -146.45884181 93.1920321 -138.39208984 87.51708984 C-130.97053547 82.28892951 -123.61734946 76.967477 -116.26611328 71.64111328 C-111.76517667 68.38154682 -107.25824565 65.1302738 -102.75244141 61.87744141 C-98.98792435 59.15930477 -95.22487292 56.43918595 -91.46484375 53.71484375 C-83.47643988 47.9301375 -75.45884181 42.1920321 -67.39208984 36.51708984 C-62.25721594 32.89979585 -57.15240664 29.24276691 -52.0625 25.5625 C-51.32193359 25.0274585 -50.58136719 24.49241699 -49.81835938 23.94116211 C-45.94261621 21.13813927 -42.07470095 18.32485991 -38.21484375 15.5 C-34.45881029 12.75366126 -30.68073062 10.04073522 -26.88427734 7.35058594 C-25.29495106 6.21141089 -23.73207547 5.03546543 -22.17578125 3.8515625 C-15.45743246 -0.87904342 -8.00769255 -1.67545567 0 0 Z " fill="#1756BE" transform="translate(527,114)"/>
<path d="M0 0 C3.59832271 2.14368161 5.44279245 4.15319962 7 8 C7.046875 9.97265625 7.046875 9.97265625 6.75 12.0625 C6.64300781 12.85011719 6.53601563 13.63773438 6.42578125 14.44921875 C5.98272408 17.10349703 5.46232618 19.7357662 4.9375 22.375 C3.89481277 27.97258405 3.62076819 33.32034227 4 39 C4.04511719 39.70640625 4.09023438 40.4128125 4.13671875 41.140625 C4.38251254 43.27809417 4.38251254 43.27809417 6 46 C7.85161829 46.92743972 7.85161829 46.92743972 10.0625 47.5234375 C10.87323975 47.7719043 11.68397949 48.02037109 12.51928711 48.27636719 C13.33792236 48.51516602 14.15655762 48.75396484 15 49 C38.37200306 56.04874115 62.34580795 68.64080051 76.62890625 89.36328125 C77.08136719 89.90339844 77.53382813 90.44351563 78 91 C88.00250101 91.81987713 95.94377782 84.67860642 103.65234375 79.0703125 C107.13450505 76.58220409 109.42462852 75.10727265 113.6875 74.3125 C118.11668804 75.23176544 119.81607201 76.81607201 123 80 C124.57455739 83.14911479 124.34799118 85.52008816 124 89 C120.2883708 94.61879046 116.41536751 96.50483085 110.25 98.875 C98.86625934 103.57046227 98.86625934 103.57046227 91.140625 112.78515625 C90.92530931 116.1763783 92.15644642 119.05632653 93.3125 122.1875 C101.3283174 145.09140623 100.8422505 169.7332104 93.70703125 192.828125 C92.96581038 196.15338108 92.74516006 197.84436875 94 201 C98.22368905 205.30368317 103.59278826 207.08000808 109.1171875 209.1796875 C114.20555618 211.25343775 116.87110168 213.44778325 120 218 C120.7709911 222.11195254 120.19728042 223.65147126 118.125 227.3125 C115.29710871 230.88895075 114.65206913 230.90684727 110.0625 231.5625 C104.33489136 231.54402384 100.97585261 228.54036012 96.67578125 225.04296875 C92.88661657 222.14992769 89.23492167 220.32016488 84.625 219.125 C79.37724347 220.39169985 78.00276821 223.55919007 75.08984375 227.92578125 C63.29501504 245.27630498 45.76294527 257.23570348 27.4140625 266.72265625 C25.1135364 267.78836392 25.1135364 267.78836392 24 269 C23.15905592 276.90487437 26.50241648 283.36774386 30.3125 290.125 C32.55088977 294.53935433 32.40350589 297.24367448 31 302 C28.5936424 305.21626436 25.96816305 306.79829936 22 307.625 C18.04111257 306.80023179 15.52071773 305.09224505 13 302 C11.68998988 298.7703711 11.0316736 295.47770019 10.375 292.0625 C8.48322795 282.69184627 8.48322795 282.69184627 3 275 C0.54649587 274.93601215 -1.87952934 274.93385403 -4.33203125 274.97265625 C-5.86913816 274.98532844 -7.40624768 274.9976874 -8.94335938 275.00976562 C-11.3610045 275.03433371 -13.77851235 275.06202307 -16.19604492 275.09594727 C-24.83814082 275.20964727 -33.09882727 275.17767077 -41.61767578 273.47192383 C-44.93533686 272.8147155 -47.63520002 272.57045107 -51 273 C-53.33850407 275.58989777 -54.57916547 278.12226127 -55.68359375 281.40625 C-55.97169922 282.23253906 -56.25980469 283.05882812 -56.55664062 283.91015625 C-57.14347639 285.63553146 -57.72681694 287.36209946 -58.30664062 289.08984375 C-61.19218055 297.32873502 -61.19218055 297.32873502 -65 300 C-68.08551598 300.80035746 -70.88559679 300.63287338 -74 300 C-77.49642934 297.59620483 -78.6892538 295.81775316 -80.1875 291.875 C-79.87217781 285.35834141 -76.16483725 280.3747916 -72.70703125 274.984375 C-70.07344247 270.76302692 -69.32227749 267.94845006 -70 263 C-72.115203 261.00995694 -73.81524623 259.72342566 -76.25 258.25 C-77.54475959 257.39726102 -78.83505205 256.53770575 -80.12109375 255.671875 C-80.77319824 255.23423828 -81.42530273 254.79660156 -82.09716797 254.34570312 C-98.48157557 242.75847517 -110.45440665 226.24790361 -118.80859375 208.23046875 C-119.79862725 205.85975797 -119.79862725 205.85975797 -122 205 C-129.13768871 205 -134.27723862 207.26227269 -140.41870117 210.6484375 C-145.53158099 213.30384296 -148.55331966 213.27451177 -154 212 C-156.87133801 209.54739878 -158.58677254 207.73420049 -159.4765625 204 C-159.73861359 200.35886907 -159.23883407 198.31685001 -157.05078125 195.4140625 C-153.07784227 192.27030284 -149.44788978 191.47926518 -144.5625 190.4375 C-142.89463229 190.07245239 -141.22914206 189.69634637 -139.56640625 189.30859375 C-138.83365479 189.15189209 -138.10090332 188.99519043 -137.34594727 188.83374023 C-133.95171848 187.62744496 -131.70219743 186.42292543 -129 184 C-128.51253682 180.85353889 -128.40910036 178.49918971 -128.58984375 175.37890625 C-128.63627044 173.63094613 -128.68248648 171.8829804 -128.72851562 170.13500977 C-128.76372314 169.22405548 -128.79893066 168.3131012 -128.83520508 167.37454224 C-129.69718569 143.67907572 -127.54365562 121.31548344 -114 101 C-113.87893219 95.79408437 -116.19455708 92.81080384 -119.56640625 89.14453125 C-123.06258201 86.06363159 -126.9140478 83.66151849 -130.9362793 81.32104492 C-135.69661387 78.48598654 -140.14231252 75.24429612 -141.62890625 69.62109375 C-141.47378615 64.52037997 -140.89609159 61.66690973 -137 58 C-133.7778336 56.3889168 -130.49423385 56.54765078 -127 57 C-123.01447396 58.95209439 -120.50856096 61.4802835 -117.6875 64.8125 C-112.97226458 70.34642465 -107.80475511 75.84068353 -100.4375 77.375 C-96.74076794 77.49547669 -95.08531706 76.65195677 -92.375 74.1875 C-91.72402344 73.54167969 -91.07304687 72.89585937 -90.40234375 72.23046875 C-73.5812451 56.61283082 -50.37975601 48.38832811 -27.91748047 46.16308594 C-23.10998871 45.71083842 -23.10998871 45.71083842 -19.01953125 43.41015625 C-15.31105731 34.64338068 -15.87924222 26.29085297 -16.16601562 16.93554688 C-16.18470703 15.85982422 -16.20339844 14.78410156 -16.22265625 13.67578125 C-16.26531616 12.2203894 -16.26531616 12.2203894 -16.30883789 10.7355957 C-15.85553597 6.72037989 -14.02982571 4.14865175 -11.375 1.1875 C-7.64578296 -0.67710852 -4.08075945 -0.66312341 0 0 Z " fill="#FCFDFE" transform="translate(513,182)"/>
<path d="M0 0 C1.63569946 0.00845947 1.63569946 0.00845947 3.30444336 0.01708984 C31.86807416 0.44382259 57.25135226 12.31495763 77.28100586 32.47875977 C89.04218207 44.73622011 103.75 65.55681684 103.75 83.3125 C104.41257812 83.15394531 105.07515625 82.99539063 105.7578125 82.83203125 C123.26764282 79.79181267 140.41346026 84.22719939 155.17578125 93.90234375 C168.72809728 103.8500714 179.14747376 118.48120879 181.75 135.3125 C181.98302775 138.12591926 182.07106123 140.92802138 182.125 143.75 C182.16238281 144.48798828 182.19976563 145.22597656 182.23828125 145.98632812 C182.30363469 150.07091828 181.97254514 152.55851671 179.3515625 155.78515625 C176.52525382 158.5308345 175.78070403 159.22088186 171.9375 159.5625 C168.33004558 159.2795624 166.62245763 158.46684322 163.75 156.3125 C161.39848607 152.7852291 161.24904153 149.90135705 160.875 145.8125 C159.38738284 132.44199549 155.03342303 122.48537785 144.6875 113.5625 C135.25261843 106.68623038 123.33819986 103.60756148 111.75 104.3125 C108.22155753 104.96932413 104.76869553 105.85940124 101.34228516 106.92553711 C96.76073079 108.3101245 93.37848918 108.61172503 88.75 107.3125 C84.98826635 104.67250384 83.53253108 102.3642168 82.59765625 97.9765625 C82.3218678 96.29912769 82.06082051 94.61922047 81.8125 92.9375 C78.01946113 71.32581683 67.51771206 52.52646604 49.4375 39.5 C29.9217554 26.71775792 6.84867676 21.15873398 -16.2890625 25.625 C-30.24426399 28.86525787 -42.30321325 33.98081293 -53.25 43.3125 C-54.35794922 44.18648437 -54.35794922 44.18648437 -55.48828125 45.078125 C-64.973779 52.87621987 -71.18283097 63.25514602 -76.25 74.3125 C-79.85032494 82.04604996 -79.85032494 82.04604996 -83.25 84.3125 C-89.56489398 85.4439185 -94.95264893 83.62701796 -100.76953125 81.28515625 C-104.53491538 79.80865129 -107.79691877 79.19438592 -111.83984375 79.13671875 C-112.70673828 79.11287109 -113.57363281 79.08902344 -114.46679688 79.06445312 C-116.27645474 79.02158255 -118.08642462 78.99027839 -119.89648438 78.97070312 C-124.16477511 78.83444737 -126.62886733 78.70100464 -130.31640625 76.39453125 C-133.29798519 73.18406342 -133.64139289 70.81242366 -133.609375 66.41796875 C-132.97418186 62.69656547 -130.91020984 60.90937151 -128.25 58.3125 C-125.71245524 57.04372762 -123.92411571 57.18307839 -121.0859375 57.1796875 C-119.52552734 57.17775391 -119.52552734 57.17775391 -117.93359375 57.17578125 C-116.29583984 57.18158203 -116.29583984 57.18158203 -114.625 57.1875 C-113.02205078 57.18169922 -113.02205078 57.18169922 -111.38671875 57.17578125 C-105.5788633 57.18292498 -99.99263483 57.43650486 -94.25 58.3125 C-93.77691406 57.42949219 -93.30382812 56.54648437 -92.81640625 55.63671875 C-88.3588413 47.48012885 -83.50246502 40.24686137 -77.25 33.3125 C-76.50234375 32.47074219 -75.7546875 31.62898437 -74.984375 30.76171875 C-55.80930711 10.34852561 -27.67953636 -0.15166869 0 0 Z " fill="#D4D9DF" transform="translate(635.25,573.6875)"/>
<path d="M0 0 C0.84326363 -0.00507454 1.68652727 -0.01014909 2.55534434 -0.0153774 C3.48703543 -0.01587516 4.41872652 -0.01637292 5.37865067 -0.01688576 C6.36434579 -0.02126801 7.35004092 -0.02565027 8.36560559 -0.03016531 C11.689719 -0.04358834 15.01380589 -0.04974002 18.33794022 -0.0558567 C20.71270748 -0.06375488 23.08747353 -0.07202365 25.46223831 -0.08063698 C32.60423791 -0.10462209 39.74624283 -0.11978948 46.88826931 -0.13269705 C48.90513426 -0.13640839 50.92199853 -0.14038167 52.9388628 -0.14444971 C65.46033353 -0.16968589 77.98180534 -0.19174144 90.5032959 -0.20417786 C93.40423207 -0.20710761 96.3051682 -0.21006926 99.20610428 -0.21308327 C99.92712819 -0.21382932 100.6481521 -0.21457537 101.39102522 -0.21534403 C113.07193243 -0.22799842 124.75268745 -0.26122198 136.43352351 -0.3028851 C148.4230484 -0.34529906 160.41249536 -0.36887226 172.40209508 -0.37409842 C179.13503305 -0.3775132 185.86773321 -0.38927584 192.60059738 -0.42220116 C198.93386862 -0.45220285 205.2667248 -0.45862156 211.60005188 -0.4468174 C213.92608179 -0.44659601 216.25213052 -0.45495483 218.57809448 -0.47247124 C221.75121176 -0.49506885 224.92281203 -0.48691057 228.09593582 -0.47098732 C229.01870402 -0.48486941 229.94147222 -0.49875149 230.89220309 -0.51305425 C235.23206924 -0.45931043 238.0999062 -0.22995791 241.54721832 2.5500145 C244.39705379 5.56654344 244.9096373 6.28813284 245.30376053 10.38701439 C244.93454206 14.81763605 243.82287206 16.75481173 240.99126053 20.13701439 C238.1639852 21.87303846 236.04876455 22.38823378 232.75204277 22.39707661 C231.48639927 22.40767499 231.48639927 22.40767499 230.19518721 22.41848749 C229.27321276 22.4160724 228.3512383 22.41365732 227.40132523 22.41116905 C226.4180048 22.41640573 225.43468438 22.42164241 224.42156637 22.42703778 C221.11744573 22.44207295 217.81347947 22.4427437 214.50932693 22.44341087 C212.14411532 22.45102993 209.77890619 22.45945699 207.4137001 22.46863365 C200.98192011 22.49060924 194.55017455 22.4994032 188.1183629 22.5044601 C184.10207662 22.50771763 180.08579991 22.5142404 176.06951904 22.52146149 C164.94838711 22.54102534 153.82726407 22.55743115 142.70611382 22.56033802 C141.63879713 22.56061938 141.63879713 22.56061938 140.5499185 22.56090641 C139.10746757 22.56127266 137.66501665 22.56163636 136.22256573 22.56199753 C135.50653774 22.56218034 134.79050976 22.56236315 134.05278397 22.5625515 C133.33588167 22.56273205 132.61897938 22.5629126 131.88035278 22.56309862 C120.26099601 22.56664114 108.64182446 22.59366924 97.02253194 22.63104939 C85.09169547 22.66912457 73.16095094 22.68849543 61.23005235 22.68879753 C54.53179827 22.68938224 47.8337986 22.69839515 41.13559723 22.7267952 C34.83675544 22.75290427 28.53835201 22.75522074 22.23948097 22.73913956 C19.92635584 22.73731944 17.61320591 22.74406622 15.30013466 22.75995827 C12.1446211 22.78031838 8.99065581 22.76992521 5.83516312 22.75174522 C4.4588936 22.77154518 4.4588936 22.77154518 3.05482066 22.79174513 C-1.27315101 22.73470699 -4.12445952 22.495425 -7.56148338 19.72359371 C-10.8911035 16.20441704 -11.40368209 14.12413879 -11.36811447 9.24248314 C-10.73292133 5.52107986 -8.66894931 3.7338859 -6.00873947 1.13701439 C-3.74371585 0.00450258 -2.51413308 0.00801441 0 0 Z " fill="#D5DADF" transform="translate(209.00873947143555,709.8629856109619)"/>
<path d="M0 0 C6.30772192 4.69605729 10.20465613 12.24798546 11.47265625 19.9140625 C11.81682327 29.12349725 9.110629 37.46735341 2.80859375 44.28515625 C-3.52385852 49.54658065 -11.0713317 52.19676257 -19.2109375 52.1015625 C-26.8677165 51.34011486 -33.73820267 48.37359423 -39.0390625 42.8203125 C-44.75524891 35.25195396 -47.18306676 27.29718729 -46.0390625 17.8203125 C-43.32720079 7.86704708 -38.23682256 2.18294206 -29.44140625 -2.98046875 C-19.77946533 -7.80358397 -8.96625027 -5.18737084 0 0 Z " fill="#6677E3" transform="translate(724.0390625,463.1796875)"/>
<path d="M0 0 C6.46663103 3.904381 9.53147012 9.95792674 12 17 C13.31241723 24.88444591 12.03023012 32.09957633 8 39 C3.67623295 44.9752855 -1.83802689 48.35770223 -9 50 C-17.14755891 50.88899124 -24.18277037 50.83751892 -31 46 C-32.5778125 44.948125 -32.5778125 44.948125 -34.1875 43.875 C-39.40666043 39.29753963 -42.44496758 31.75872059 -43.23828125 24.95703125 C-43.55112017 15.91763311 -39.9980241 9.28342262 -33.9375 2.7265625 C-23.89522318 -6.22240193 -11.54667977 -5.49060128 0 0 Z " fill="#01936A" transform="translate(352,598)"/>
<path d="M0 0 C1.1328125 2.9140625 1.1328125 2.9140625 2.125 6.625 C2.45757813 7.83414062 2.79015625 9.04328125 3.1328125 10.2890625 C7.00138422 26.84376129 5.42035007 43.99189947 0 60 C-3.82557113 59.38550765 -6.91460772 58.24899916 -10.39453125 56.55859375 C-11.94140625 55.81186401 -11.94140625 55.81186401 -13.51953125 55.05004883 C-14.60621094 54.51790771 -15.69289063 53.9857666 -16.8125 53.4375 C-17.92367187 52.89826904 -19.03484375 52.35903809 -20.1796875 51.8034668 C-23.45682812 50.20975306 -26.7293459 48.60697764 -30 47 C-30.89638184 46.56010742 -31.79276367 46.12021484 -32.71630859 45.66699219 C-34.97987904 44.5534652 -37.24098831 43.43524234 -39.5 42.3125 C-40.15718018 41.98628662 -40.81436035 41.66007324 -41.49145508 41.32397461 C-46.7600711 38.67996447 -46.7600711 38.67996447 -47.94140625 35.33203125 C-48.68520782 31.11715566 -49.05566191 27.80782857 -47 24 C-41.06563117 18.5960696 -33.41065094 15.234894 -26.28955078 11.67382812 C-23.15637244 10.07956727 -20.10563333 8.39296876 -17.05859375 6.640625 C-16.15012695 6.12008545 -15.24166016 5.5995459 -14.30566406 5.06323242 C-12.5897851 4.07969009 -10.87427657 3.09550118 -9.15917969 2.1105957 C-8.38864258 1.68351318 -7.61810547 1.25643066 -6.82421875 0.81640625 C-6.15479248 0.43943604 -5.48536621 0.06246582 -4.7956543 -0.32592773 C-3 -1 -3 -1 0 0 Z " fill="#1C58BF" transform="translate(583,309)"/>
<path d="M0 0 C18.03397168 0.44779614 34.4461898 10.63680204 47 23 C49.24399149 25.58953366 51.10821958 28.13530394 53 31 C47.36047173 34.38053528 41.68798966 37.70170655 36 41 C34.88641113 41.64743164 33.77282227 42.29486328 32.62548828 42.96191406 C29.61467407 44.70797292 26.59358468 46.43520324 23.5663147 48.15255737 C22.3576526 48.84125737 21.15187092 49.5350378 19.94906616 50.23391724 C18.23957589 51.22569001 16.51838969 52.19721781 14.796875 53.16796875 C13.80010742 53.73797607 12.80333984 54.3079834 11.77636719 54.89526367 C7.86525524 56.45152304 5.5794157 55.56781786 1.76171875 54.1953125 C-0.5522694 53.00127718 -2.17861403 51.86882457 -4 50 C-4.41064453 47.93896484 -4.41064453 47.93896484 -4.3203125 45.4609375 C-4.28687744 44.48366699 -4.25344238 43.50639648 -4.21899414 42.49951172 C-3.81084489 35.97731405 -3.3340945 29.46500536 -2.77319336 22.95410156 C-2.56058551 20.47770053 -2.35699264 18.00066755 -2.15429688 15.5234375 C-2.02136272 13.94266373 -1.88791805 12.36193278 -1.75390625 10.78125 C-1.6934462 10.0437854 -1.63298615 9.3063208 -1.57069397 8.54650879 C-1.30562497 5.51956457 -0.96514924 2.89544773 0 0 Z " fill="#1856BD" transform="translate(516,255)"/>
<path d="M0 0 C0.11653635 9.91256223 -0.04041807 19.78719029 -0.67749023 29.68017578 C-0.76826883 31.23999171 -0.83824455 32.8011438 -0.88842773 34.36279297 C-1.31896022 47.28413253 -1.31896022 47.28413253 -5.38037109 51.4296875 C-9.43753458 53.81682046 -12.36512681 55.1086758 -17.11816406 54.79272461 C-20.06770554 53.98137581 -21.55895038 53.1724025 -23.84765625 51.19140625 C-24.52916748 50.61382568 -25.21067871 50.03624512 -25.9128418 49.44116211 C-26.622229 48.82120361 -27.33161621 48.20124512 -28.0625 47.5625 C-29.5688397 46.28211943 -31.07666747 45.00348758 -32.5859375 43.7265625 C-33.3294043 43.09395508 -34.07287109 42.46134766 -34.83886719 41.80957031 C-38.84057997 38.45883656 -43.00601508 35.33096894 -47.16796875 32.18359375 C-50.18042617 29.8608852 -53.09186016 27.45145418 -56 25 C-52.67664558 16.48990746 -40.96626182 11.00803986 -33.07714844 7.39892578 C-27.86835478 5.17167199 -22.52670482 3.53922573 -17.0625 2.0625 C-16.28189209 1.85077148 -15.50128418 1.63904297 -14.69702148 1.42089844 C-9.67234104 0.16137568 -5.17748541 -0.19437659 0 0 Z " fill="#1553BC" transform="translate(491,253)"/>
<path d="M0 0 C3.91975566 1.6921872 7.07228538 4.28798383 10.375 6.9375 C11.62623014 7.93108019 12.87753438 8.92456707 14.12890625 9.91796875 C14.76844238 10.42763184 15.40797852 10.93729492 16.06689453 11.46240234 C19.13806806 13.90522261 22.22542004 16.32733539 25.3125 18.75 C25.89193359 19.20536133 26.47136719 19.66072266 27.06835938 20.12988281 C31.69999806 23.7690275 36.3445236 27.39138999 41 31 C40.77160737 33.10662151 40.51650087 35.21035951 40.25 37.3125 C40.11078125 38.48425781 39.9715625 39.65601563 39.828125 40.86328125 C38.85574544 44.54639816 38.1261328 45.02192829 35 47 C32.8999939 47.89225769 32.8999939 47.89225769 30.63037109 48.62573242 C29.34916885 49.04582832 29.34916885 49.04582832 28.04208374 49.47441101 C27.12843048 49.76516006 26.21477722 50.05590912 25.2734375 50.35546875 C24.32941071 50.66196854 23.38538391 50.96846832 22.41275024 51.28425598 C20.42184012 51.92903505 18.42973153 52.57012373 16.43652344 53.20776367 C13.37683424 54.18691301 10.32100423 55.17741484 7.265625 56.16992188 C5.33094416 56.79493673 3.39605529 57.41930806 1.4609375 58.04296875 C0.54323578 58.3397905 -0.37446594 58.63661224 -1.31997681 58.94242859 C-2.16780731 59.21303604 -3.01563782 59.48364349 -3.88916016 59.76245117 C-4.63654449 60.00211105 -5.38392883 60.24177094 -6.15396118 60.48869324 C-8 61 -8 61 -10 61 C-13.56534917 42.74196193 -10.36751428 23.85706342 -3 7 C-2.67386719 6.22269531 -2.34773438 5.44539063 -2.01171875 4.64453125 C-1.35686444 3.08964021 -0.68189045 1.54322576 0 0 Z " fill="#1553BC" transform="translate(418,296)"/>
<path d="M0 0 C1.8359375 1.3828125 1.8359375 1.3828125 3.375 3.125 C4.16003906 3.96417969 4.16003906 3.96417969 4.9609375 4.8203125 C6.73560696 8.54311534 5.55310776 12.34508938 4.29232788 16.11737061 C3.38132693 18.4784815 2.42042264 20.81245111 1.4375 23.14453125 C0.91047485 24.42102791 0.91047485 24.42102791 0.37280273 25.72331238 C-0.74395222 28.42289635 -1.87186861 31.11765327 -3 33.8125 C-3.75853476 35.64227888 -4.51635472 37.47235425 -5.2734375 39.30273438 C-6.65588872 42.63826635 -8.04049917 45.97285264 -9.43359375 49.30395508 C-9.71259521 49.97123123 -9.99159668 50.63850739 -10.27905273 51.32600403 C-10.81397947 52.56807158 -11.39520608 53.79041216 -12 55 C-17.98907284 52.89371861 -22.23455778 49.09198494 -27 45 C-28.02673828 44.12021484 -28.02673828 44.12021484 -29.07421875 43.22265625 C-36.96602021 35.90713238 -43.64693057 25.83314712 -48 16 C-48 15.01 -48 14.02 -48 13 C-47.33693848 12.78907715 -46.67387695 12.5781543 -45.99072266 12.36083984 C-44.00110644 11.72742083 -42.01170536 11.0933259 -40.02246094 10.45874023 C-37.74746652 9.73305036 -35.47207175 9.00861444 -33.19628906 8.28540039 C-27.94656593 6.61081737 -22.70853952 4.91936342 -17.5078125 3.09765625 C-16.69618652 2.8155127 -15.88456055 2.53336914 -15.04833984 2.24267578 C-13.55284272 1.71875933 -12.06072204 1.18506876 -10.57275391 0.64013672 C-6.68814382 -0.71465499 -3.91592518 -1.49079958 0 0 Z " fill="#1452BB" transform="translate(464,367)"/>
<path d="M0 0 C7.41292463 2.67587038 14.48415006 6.23806028 21.58984375 9.62890625 C23.75978768 10.65958135 25.93041693 11.68878289 28.10174561 12.71653748 C29.44387094 13.35230557 30.78511142 13.98994621 32.12530518 14.629776 C35.48952204 16.2285467 38.86312238 17.72891932 42.33984375 19.06640625 C40.91005053 23.53553135 38.45161295 26.5312299 35.27734375 29.87890625 C34.78202148 30.40589111 34.28669922 30.93287598 33.77636719 31.47583008 C27.25874126 38.3361029 20.68340877 44.07207343 12.58984375 49.00390625 C11.95143555 49.39408936 11.31302734 49.78427246 10.65527344 50.1862793 C7.20189471 52.21674647 4.26662913 53.39865128 0.33984375 54.06640625 C-1.61997178 47.61702268 -3.54051014 41.15688483 -5.43408203 34.68774414 C-6.08294762 32.48812549 -6.74078498 30.29113287 -7.40771484 28.09692383 C-8.36451358 24.94348061 -9.28871546 21.78201983 -10.20703125 18.6171875 C-10.51203552 17.63680008 -10.81703979 16.65641266 -11.13128662 15.64631653 C-11.85853462 13.07701516 -12.47364169 10.73016327 -12.66015625 8.06640625 C-10.95019531 5.06323242 -10.95019531 5.06323242 -8.66015625 3.06640625 C-7.93828125 2.24140625 -7.21640625 1.41640625 -6.47265625 0.56640625 C-3.66015625 -0.93359375 -3.66015625 -0.93359375 0 0 Z " fill="#1A56BE" transform="translate(529.66015625,371.93359375)"/>
<path d="M0 0 C5.11214639 3.36936921 8.63169875 7.01504394 10.75 12.8125 C11.60605652 18.42906597 10.86733068 23.05680295 8.09375 28.01953125 C5.14950564 31.94804335 1.35356375 34.27797875 -3.25 35.8125 C-9.6924673 36.5876292 -14.98793416 35.74471914 -20.25 31.8125 C-25.01590566 26.71546442 -26.65365071 21.91302321 -26.5234375 14.89453125 C-25.70392531 8.6545313 -21.5198299 4.79672357 -16.93359375 0.9765625 C-11.97489216 -2.45195971 -5.42141666 -1.98090224 0 0 Z " fill="#1755BD" transform="translate(504.25,326.1875)"/>
<path d="M0 0 C1.2065625 0.0309375 1.2065625 0.0309375 2.4375 0.0625 C4.29654534 6.25326352 6.14707623 12.44652552 7.99169922 18.64160156 C8.62027178 20.7489584 9.25079391 22.85573474 9.88330078 24.96191406 C10.79191592 27.98872933 11.69350809 31.01756036 12.59375 34.046875 C12.87810913 34.98867615 13.16246826 35.93047729 13.45544434 36.90081787 C13.71571411 37.78142883 13.97598389 38.66203979 14.24414062 39.56933594 C14.47508423 40.34210876 14.70602783 41.11488159 14.94396973 41.91107178 C15.4375 44.0625 15.4375 44.0625 15.4375 48.0625 C3.3712834 51.02529378 -9.75957363 49.25042867 -21.5625 46.0625 C-19.63500337 40.03811907 -17.46951905 34.17562995 -15.0234375 28.34375 C-14.69711334 27.55979858 -14.37078918 26.77584717 -14.03457642 25.96813965 C-13.35207228 24.33065302 -12.66800571 22.69381679 -11.98242188 21.05761719 C-10.92925168 18.54280425 -9.88227655 16.02547424 -8.8359375 13.5078125 C-8.16963373 11.91130683 -7.50297995 10.31494718 -6.8359375 8.71875 C-6.36563614 7.58765808 -6.36563614 7.58765808 -5.88583374 6.43371582 C-3.21596191 0.0784381 -3.21596191 0.0784381 0 0 Z " fill="#1753BC" transform="translate(493.5625,384.9375)"/>
<path d="M0 0 C0.66 0.33 1.32 0.66 2 1 C0.08743854 3.10802765 -1.82980255 5.21144674 -3.75 7.3125 C-4.28882813 7.90740234 -4.82765625 8.50230469 -5.3828125 9.11523438 C-11.09853045 15.35373141 -11.09853045 15.35373141 -14 17 C-14.99 16.67 -15.98 16.34 -17 16 C-16.10796875 15.18015625 -15.2159375 14.3603125 -14.296875 13.515625 C-13.11454214 12.42712808 -11.93225277 11.33858392 -10.75 10.25 C-9.87021484 9.44175781 -9.87021484 9.44175781 -8.97265625 8.6171875 C-5.91843019 5.80318147 -2.90859255 2.96618844 0 0 Z " fill="#1347B8" transform="translate(603,863)"/>
<path d="M0 0 C0 3.59857954 -0.95830515 5.09451118 -3 8 C-3.66 8 -4.32 8 -5 8 C-5.33 12.62 -5.66 17.24 -6 22 C-8.48225182 18.27662228 -8.65038161 15.31472678 -8 11 C-6.27717314 6.59524678 -3.51462945 3.13806201 0 0 Z " fill="#1342B6" transform="translate(486,328)"/>
<path d="M0 0 C2.95935682 2.69032438 4.30357818 5.467872 5.9375 9.0625 C7.05267917 11.09606201 8.29164135 12.44694668 10 14 C9.01 15.485 9.01 15.485 8 17 C6.66161267 14.54429825 5.32913768 12.08570084 4 9.625 C3.6184375 8.92632812 3.236875 8.22765625 2.84375 7.5078125 C0 2.2265625 0 2.2265625 0 0 Z " fill="#0A3CB2" transform="translate(366,440)"/>
<path d="M0 0 C0.87527344 -0.01417969 1.75054688 -0.02835937 2.65234375 -0.04296875 C5.0625 0.1875 5.0625 0.1875 8.0625 2.1875 C6.12653108 2.40961116 4.18860672 2.61472992 2.25 2.8125 C0.63158203 2.98652344 0.63158203 2.98652344 -1.01953125 3.1640625 C-3.9375 3.1875 -3.9375 3.1875 -6.9375 1.1875 C-4.47380468 -0.04434766 -2.7480499 0.02017658 0 0 Z " fill="#5769DF" transform="translate(705.9375,457.8125)"/>
<path d="M0 0 C0.33 0 0.66 0 1 0 C1 4.29 1 8.58 1 13 C0.01 13.495 0.01 13.495 -1 14 C-2.35439668 11.29120665 -2.06501451 8.99066732 -2 6 C-1.67 6 -1.34 6 -1 6 C-0.67 4.02 -0.34 2.04 0 0 Z " fill="#2D66C4" transform="translate(613,340)"/>
<path d="M0 0 C0.66 0.33 1.32 0.66 2 1 C0.75 3.5 0.75 3.5 -1 6 C-2.32 6 -3.64 6 -5 6 C-5.33 6.66 -5.66 7.32 -6 8 C-5.65120368 4.74456771 -4.97866739 3.98126893 -2.4375 1.75 C-1.633125 1.1725 -0.82875 0.595 0 0 Z " fill="#0C3FB6" transform="translate(584,880)"/>
<path d="M0 0 C0.66 0.33 1.32 0.66 2 1 C0.02 3.31 -1.96 5.62 -4 8 C-5.32 7.67 -6.64 7.34 -8 7 C-5.36 4.69 -2.72 2.38 0 0 Z " fill="#0A3BB2" transform="translate(594,872)"/>
<path d="M0 0 C0.99 0 1.98 0 3 0 C1.54744301 3.82946843 -0.42895561 5.12050295 -4 7 C-2.79618552 4.50638429 -1.54571278 2.31856917 0 0 Z " fill="#1F5EC0" transform="translate(595,402)"/>
<path d="M0 0 C0.99 0.33 1.98 0.66 3 1 C3.33 3.31 3.66 5.62 4 8 C2 5 2 5 2 3 C0.35 3 -1.3 3 -3 3 C-2.01 2.01 -1.02 1.02 0 0 Z " fill="#0D3DB5" transform="translate(580,308)"/>
<path d="M0 0 C0.33 0.99 0.66 1.98 1 3 C0.34 3 -0.32 3 -1 3 C-1.66 4.32 -2.32 5.64 -3 7 C-3.66 6.67 -4.32 6.34 -5 6 C-3.63016497 2.83884224 -3.0109362 2.0072908 0 0 Z " fill="#0D46B6" transform="translate(313,256)"/>
<path d="M0 0 C0.33 1.32 0.66 2.64 1 4 C-0.98 4.99 -0.98 4.99 -3 6 C-3.66 5.34 -4.32 4.68 -5 4 C-3.35 2.68 -1.7 1.36 0 0 Z " fill="#0D46B8" transform="translate(477,138)"/>
</svg>
